<svg xmlns="http://www.w3.org/2000/svg" version="1.1" xmlns:xlink="http://www.w3.org/1999/xlink" xmlns:svgjs="http://svgjs.dev/svgjs" viewBox="0 0 800 800"><defs><linearGradient x1="50%" y1="0%" x2="50%" y2="100%" id="ccchaos-grad"><stop stop-color="hsl(206, 75%, 49%)" stop-opacity="1" offset="0%"></stop><stop stop-color="hsl(331, 90%, 56%)" stop-opacity="1" offset="100%"></stop></linearGradient></defs><g stroke-width="2" stroke="url(#ccchaos-grad)" fill="none" stroke-linecap="round"><path d="M422.23 101.33C432.63 102.94 442.97 105.48 453.2 108.82 463.4 112.45 473.42 116.68 483.15 121.38 492.72 126.06 501.85 131.01 510.36 136.13 518.52 140.96 525.87 145.84 532.23 150.7 540.43 157.32 550.49 169.64 552.8 175.47 554.8 180.83 561.48 192 568.91 198.1 576.64 202.2 586.49 206.69 598.5 211.58 612.39 216.51 627.63 221.9 643.41 227.73 658.79 233.66 672.68 240.04 683.92 246.86 691.85 253.79 695.58 261.14 694.75 268.85 690.24 276.67 682.24 284.82 671.97 293.27 661.74 301.78 652.6 310.55 646.25 319.52 644.52 328.53 647.58 337.71 655.44 347.02 667.57 356.35 682.09 365.78 696.88 375.28 710 384.79 718.82 394.14 722.09 403.33 719.86 412.53 711.98 421.58 699.63 430.48 684.69 439.43 668.73 448.27 653.64 457.03 641.11 465.89 632.03 474.72 626.87 483.56 625.96 492.58 628.34 501.67 633.01 510.88 639.47 520.32 645.86 529.94 651.03 539.75 654.78 549.83 655.75 560.11 653.66 570.57 648.91 581.25 641.21 592.05 631.06 602.87 619.09 613.75 605.72 624.49 591.61 634.95 577.15 645.15 562.87 654.81 549.14 663.73 536.02 672.03 523.79 679.3 512.47 685.36 501.98 690.47 492.28 694.18 483.21 696.37 474.74 697.51 466.61 697.14 458.64 695.31 450.96 692.68 443.2 688.86 435.22 684.06 427.33 679.08 419.1 673.63 410.48 667.98 401.86 662.97 392.8 658.33 383.33 654.3 373.85 651.6 364.19 649.88 354.44 649.15 344.75 649.83 335.02 651.35 325.37 653.53 315.85 656.68 306.51 660.08 297.46 663.46 288.65 667.13 280.25 670.32 272.37 672.8 264.81 674.93 257.84 676.01 251.54 675.93 245.51 675.12 240.1 673.01 235.27 669.63 230.49 665.42 226.07 660 221.89 653.49 217.33 646.27 212.69 638.15 207.81 629.26 202.17 619.92 196.08 610.02 189.51 599.73 182.18 589.22 174.51 578.47 166.68 567.6 158.65 556.69 150.96 545.77 143.91 534.89 137.47 524.08 132.15 513.35 128.14 502.74 125.1 492.23 123.34 481.83 122.75 471.56 122.59 461.37 123 451.28 123.66 441.29 123.72 431.36 123.43 421.5 122.64 411.72 120.8 401.96 118.51 392.27 116.05 382.65 113.26 373.04 111.11 363.72 109.93 354.71 109.53 345.69 110.58 336.99 113.08 328.61 116.53 320.24 121.15 312.2 126.6 304.51 132.19 296.83 137.95 289.5 143.57 282.54 148.43 275.58 152.78 268.97 156.6 262.72 159.51 256.43 162.1 250.46 164.57 244.8 166.72 239.04 169.26 233.52 172.43 228.24 176 222.76 180.56 217.42 186.14 212.21 192.49 206.7 199.88 201.23 208.19 195.79 217.14 189.97 226.77 184.14 236.9 178.27 247.33 172.04 258 165.8 268.76 159.57 279.5 153.08 290.2 146.69 300.79 140.49 311.21 134.21 321.51 128.28 331.71 122.8 341.73 117.5 351.71 112.84 361.69 108.93 371.56 105.44 381.51 102.86 391.58 101.26 401.61 100.24 411.83 100.25 422.22 101.33" stroke-dasharray="4 1" transform="rotate(0, 400, 400)" opacity="0.51"></path><path d="M421.57 111.96C431.55 113.55 441.28 116.02 450.71 119.27 460.1 122.8 469.1 126.92 477.64 131.52 486.02 136.11 493.8 140.99 500.85 146.06 507.62 150.88 513.54 155.77 518.53 160.67 525.05 167.42 533.59 180.07 536.5 186.06 538.87 189.69 541.52 193.41 544.87 197.25 549.67 200.85 555.84 204.67 563.7 208.74 573.51 212.69 585.11 216.98 598.31 221.62 612.68 226.25 627.63 231.28 642.35 236.72 655.99 242.2 667.62 248.12 676.29 254.44 681.67 260.83 683.09 267.63 680.48 274.79 674.88 282.02 666.56 289.6 656.71 297.48 647.47 305.41 639.66 313.62 634.72 322.06 634.16 330.53 637.97 339.21 646.05 348.05 657.87 356.91 671.72 365.92 685.71 375.06 698.19 384.19 706.77 393.24 710.34 402.19 708.93 411.15 702.26 420.03 691.29 428.82 677.59 437.66 662.49 446.46 647.66 455.23 634.68 464.1 624.46 472.99 617.61 481.92 614.62 491.01 614.87 500.2 617.65 509.51 622.66 519.03 628.3 528.7 633.52 538.52 638.13 548.55 640.71 558.74 640.83 569.02 638.76 579.45 633.94 589.9 626.63 600.29 617.38 610.64 606.35 620.76 594.09 630.5 581 639.93 567.53 648.75 554.1 656.79 540.81 664.19 528.02 670.58 515.89 675.79 504.32 680.11 493.44 683.11 483.22 684.71 473.52 685.37 464.29 684.67 455.4 682.66 446.83 679.97 438.41 676.23 430 671.62 421.73 666.91 413.35 661.79 404.79 656.49 396.25 651.82 387.48 647.47 378.48 643.66 369.47 641.07 360.46 639.35 351.49 638.52 342.56 638.98 333.73 640.19 325.1 642.01 316.58 644.77 308.34 647.77 300.47 650.8 292.78 654.17 285.55 657.16 278.84 659.56 269.35 662.36 253.26 662.13 246.4 658.69 241.8 655.28 237.36 650.74 232.94 645.14 228 638.89 222.83 631.73 217.31 623.8 211.03 615.39 204.3 606.38 197.16 596.91 189.42 587.17 181.49 577.13 173.58 566.88 165.69 556.54 158.31 546.11 151.72 535.66 145.86 525.23 141.18 514.83 137.81 504.51 135.37 494.24 134.13 484.07 133.93 474.02 134.05 464.02 134.62 454.12 135.32 444.35 135.38 434.61 135.02 424.97 134.12 415.44 132.18 405.93 129.8 396.51 127.22 387.2 124.32 377.89 122.02 368.9 120.65 360.23 120.03 351.56 120.83 343.21 123.06 335.2 126.27 327.18 130.68 319.5 136 312.16 141.58 304.8 147.44 297.79 153.26 291.12 158.45 284.42 163.2 278.04 167.41 271.99 170.71 265.87 173.57 260.02 176.18 254.45 178.28 248.73 180.57 243.23 183.24 237.92 186.11 232.38 189.76 226.96 194.29 221.63 199.46 216.01 205.63 210.41 212.73 204.83 220.49 198.9 229.06 192.95 238.25 187 247.88 180.71 257.92 174.44 268.22 168.21 278.68 161.77 289.22 155.46 299.76 149.38 310.27 143.26 320.71 137.5 331.05 132.22 341.32 127.13 351.49 122.67 361.59 118.96 371.63 115.66 381.64 113.23 391.62 111.76 401.6 110.82 411.58 110.89 421.56 111.96" stroke-dasharray="3 10" transform="rotate(4.04, 400, 400)" opacity="0.77"></path><path d="M416.8 122.6C426.28 124.15 435.35 126.56 443.98 129.71 452.56 133.13 460.63 137.14 468.11 141.62 475.47 146.11 482.17 150.9 488.13 155.91 493.9 160.7 498.9 165.59 503.13 170.5 508.97 177.35 518.18 190.31 522.67 196.46 526.5 200.2 530.97 204.01 536.4 207.91 543.28 211.55 551.55 215.36 561.35 219.38 572.67 223.25 585.32 227.4 598.97 231.85 613.08 236.25 627.09 241 640.21 246.12 651.76 251.24 660.96 256.76 667.09 262.64 670.12 268.58 669.56 274.89 665.54 281.55 659.23 288.27 650.9 295.32 641.71 302.69 633.56 310.09 627.1 317.79 623.51 325.73 624 333.7 628.46 341.91 636.67 350.32 648.15 358.73 661.32 367.34 674.54 376.13 686.38 384.92 694.71 393.68 698.52 402.39 697.86 411.12 692.32 419.82 682.68 428.5 670.27 437.21 656.15 445.94 641.8 454.69 628.66 463.52 617.61 472.41 609.37 481.37 604.51 490.46 602.72 499.66 603.52 508.97 606.8 518.44 611.23 528.05 615.93 537.77 620.71 547.63 624.22 557.59 625.91 567.58 625.99 577.62 623.68 587.62 619.06 597.46 612.58 607.19 604.14 616.61 594.18 625.59 583.08 634.2 571.15 642.16 558.78 649.33 546.15 655.86 533.61 661.4 521.38 665.81 509.4 669.4 497.92 671.76 486.99 672.84 476.43 673.09 466.36 672.11 456.73 669.96 447.37 667.25 438.3 663.62 429.45 659.22 420.73 654.78 412.1 649.98 403.5 645.04 394.95 640.69 386.35 636.62 377.73 633.03 369.1 630.55 360.63 628.83 352.36 627.9 344.12 628.16 336.11 629.09 328.39 630.58 320.75 632.95 313.46 635.57 306.59 638.25 299.82 641.31 293.51 644.06 287.68 646.34 279.28 649.18 264.5 649.87 257.74 647.29 252.97 644.59 248.2 640.84 243.28 636.1 237.77 630.76 231.94 624.53 225.73 617.53 218.82 610.06 211.53 601.95 203.95 593.34 195.95 584.43 187.94 575.16 180.15 565.61 172.57 555.94 165.65 546.1 159.66 536.18 154.47 526.23 150.48 516.26 147.76 506.32 145.91 496.41 145.15 486.56 145.3 476.8 145.64 467.07 146.32 457.44 147.04 447.93 147.04 438.44 146.59 429.06 145.58 419.8 143.54 410.56 141.07 401.42 138.39 392.41 135.39 383.4 132.96 374.72 131.41 366.37 130.59 358.02 131.12 349.99 133.06 342.29 135.98 334.58 140.14 327.2 145.27 320.14 150.77 313.06 156.66 306.29 162.64 299.84 168.12 293.34 173.24 287.13 177.87 281.21 181.61 275.19 184.87 269.42 187.75 263.87 190 258.17 192.23 252.63 194.64 247.25 197.01 241.64 199.96 236.12 203.61 230.67 207.71 224.94 212.71 219.22 218.59 213.51 225.08 207.49 232.41 201.46 240.45 195.43 249 189.13 258.09 182.86 267.57 176.67 277.35 170.31 287.34 164.12 297.45 158.18 307.67 152.24 317.9 146.68 328.06 141.6 338.25 136.74 348.35 132.5 358.33 128.99 368.31 125.88 378.18 123.62 387.93 122.26 397.68 121.42 407.31 121.52 416.79 122.6" stroke-dasharray="9 1" transform="rotate(8.08, 400, 400)" opacity="0.08"></path><path d="M408.82 133.23C417.74 134.75 426.17 137.08 434.08 140.13 441.94 143.45 449.24 147.33 455.94 151.67 462.55 156.05 468.53 160.75 473.86 165.67 479.11 170.41 483.76 175.28 487.85 180.19 492.03 184.8 495.83 189.41 499.44 194 503.47 198.22 507.65 202.44 512.25 206.64 517.77 210.51 524.12 214.42 531.52 218.39 540.21 222.1 550.13 225.95 561.26 229.96 573.43 233.8 586.4 237.87 599.75 242.19 612.95 246.43 625.47 250.97 636.59 255.83 645.86 260.67 652.62 265.86 656.36 271.39 657.3 276.93 655.12 282.83 650.08 289.07 643.41 295.33 635.38 301.92 627.02 308.83 620.04 315.76 614.92 322.98 612.59 330.48 614.04 337.99 619.04 345.76 627.31 353.76 638.41 361.77 650.91 370 663.37 378.45 674.58 386.9 682.64 395.38 686.65 403.85 686.64 412.34 682.17 420.86 673.81 429.39 662.7 437.96 649.67 446.58 635.98 455.25 622.94 463.99 611.39 472.81 602.06 481.71 595.61 490.72 591.92 499.83 590.76 509.04 592.15 518.37 595.05 527.8 598.74 537.29 603.09 546.86 606.85 556.47 609.45 566.05 611.03 575.61 610.71 585.05 608.39 594.26 604.48 603.3 598.63 611.97 591.13 620.14 582.38 627.92 572.47 635.03 561.77 641.33 550.5 647.02 538.92 651.76 527.31 655.43 515.66 658.35 504.24 660.14 493.17 660.76 482.29 660.66 471.82 659.47 461.76 657.22 451.9 654.53 442.39 651.02 433.2 646.85 424.13 642.69 415.29 638.21 406.64 633.61 398.03 629.57 389.56 625.78 381.22 622.39 372.88 620.02 364.85 618.32 357.14 617.31 349.44 617.38 342.08 618.05 335.09 619.22 328.12 621.23 321.55 623.47 315.39 625.81 306.4 629.8 290.36 635.95 283.12 637.33 275.77 637.32 260.73 631.87 252.49 626.39 246.32 621.89 239.8 616.53 232.93 610.42 225.5 603.86 217.8 596.66 209.95 588.92 201.9 580.87 194.02 572.41 186.53 563.63 179.44 554.68 173.13 545.5 167.83 536.19 163.37 526.82 160.1 517.37 158.04 507.91 156.74 498.44 156.41 488.99 156.86 479.6 157.37 470.23 158.11 460.93 158.78 451.73 158.7 442.56 158.14 433.48 157.01 424.51 154.88 415.57 152.32 406.73 149.56 398.02 146.48 389.31 143.94 380.93 142.23 372.88 141.2 364.82 141.47 357.07 143.1 349.65 145.71 342.21 149.57 335.07 154.45 328.24 159.8 321.38 165.65 314.81 171.7 308.52 177.41 302.17 182.86 296.07 187.9 290.22 192.11 284.27 195.83 278.52 199.11 272.95 201.66 267.23 204.04 261.64 206.41 256.17 208.55 250.48 211.03 244.86 214.02 239.28 217.26 233.45 221.24 227.63 225.99 221.81 231.24 215.73 237.3 209.65 244.09 203.59 251.38 197.3 259.29 191.08 267.7 184.96 276.48 178.72 285.59 172.67 294.93 166.9 304.48 161.17 314.13 155.83 323.8 150.97 333.56 146.34 343.27 142.33 352.88 139.02 362.52 136.11 372.04 134.01 381.38 132.77 390.73 132.02 399.9 132.16 408.81 133.23" stroke-dasharray="3 10" transform="rotate(12.12, 400, 400)" opacity="0.84"></path><path d="M399.17 143.86C407.5 145.35 415.35 147.6 422.67 150.54 429.97 153.74 436.74 157.49 442.96 161.7 449.15 165.95 454.81 170.53 459.97 175.35 465.17 180.03 469.98 184.84 474.47 189.73 479.19 194.36 483.83 199.01 488.55 203.65 493.82 207.97 499.48 212.28 505.74 216.58 512.9 220.56 520.93 224.58 529.93 228.64 539.94 232.44 550.89 236.35 562.66 240.38 574.96 244.23 587.53 248.26 599.93 252.51 611.69 256.65 622.31 261.05 631.22 265.73 640.36 272.82 641.68 288.53 634.3 297.18 627.6 303.06 620.09 309.26 612.72 315.76 606.96 322.28 603.13 329.09 601.97 336.18 604.26 343.27 609.69 350.64 617.97 358.27 628.65 365.89 640.49 373.78 652.2 381.9 662.79 390.03 670.56 398.22 674.71 406.45 675.29 414.69 671.8 423 664.66 431.35 654.85 439.74 642.97 448.2 630.11 456.73 617.42 465.31 605.66 473.99 595.58 482.75 587.83 491.59 582.49 500.51 579.48 509.51 578.95 518.59 580.13 527.72 582.45 536.87 585.87 546.05 589.27 555.21 592.11 564.27 594.52 573.26 595.55 582.06 595 590.57 593.22 598.87 589.7 606.76 584.57 614.1 578.24 621.05 570.59 627.32 561.91 632.79 552.49 637.69 542.44 641.68 532.05 644.66 521.37 646.99 510.64 648.28 500.03 648.5 489.42 648.12 479.06 646.75 469.01 644.47 459.06 641.82 449.43 638.46 440.14 634.53 430.93 630.64 422.01 626.48 413.37 622.21 404.77 618.47 396.41 614.94 388.29 611.76 380.17 609.5 372.46 607.81 365.15 606.74 357.83 606.64 350.91 607.07 344.39 607.95 337.85 609.61 331.71 611.5 325.95 613.49 317.39 617.02 301.63 622.72 294.13 624.19 286.25 624.54 269.5 620.51 260.22 616.03 253.41 612.3 246.29 607.75 238.9 602.48 231.11 596.8 223.2 590.47 215.32 583.59 207.43 576.41 199.9 568.78 192.91 560.78 186.45 552.6 180.88 544.16 176.35 535.52 172.65 526.79 170.09 517.93 168.66 509.01 167.86 500.07 167.9 491.09 168.58 482.15 169.21 473.2 169.95 464.3 170.55 455.47 170.36 446.65 169.67 437.91 168.41 429.28 166.19 420.66 163.56 412.13 160.73 403.73 157.59 395.33 154.96 387.24 153.1 379.47 151.87 371.68 151.88 364.19 153.19 357.01 155.47 349.8 158.99 342.87 163.56 336.23 168.68 329.54 174.41 323.12 180.46 316.95 186.31 310.7 192.02 304.67 197.43 298.86 202.11 292.93 206.32 287.17 210.07 281.57 213.07 275.81 215.76 270.15 218.3 264.59 220.44 258.82 222.73 253.1 225.32 247.43 227.96 241.51 231.15 235.61 234.96 229.73 239.12 223.62 244 217.52 249.56 211.47 255.57 205.24 262.22 199.09 269.41 193.09 276.98 187 284.99 181.13 293.31 175.56 301.89 170.05 310.67 164.94 319.55 160.33 328.58 155.95 337.63 152.17 346.62 149.07 355.68 146.35 364.63 144.41 373.41 143.28 382.22 142.62 390.82 142.81 399.16 143.86" stroke-dasharray="2 8" transform="rotate(16.16, 400, 400)" opacity="0.15"></path><path d="M389.67 154.5C397.45 155.94 404.8 158.12 411.71 160.94 418.61 164.02 425.08 167.63 431.13 171.68 437.2 175.8 442.9 180.25 448.3 184.95 453.81 189.54 459.15 194.29 464.4 199.13 469.98 203.75 475.69 208.41 481.69 213.09 488.26 217.47 495.35 221.86 503.08 226.25 511.59 230.34 520.86 234.46 530.91 238.62 541.62 242.51 552.93 246.5 564.63 250.58 576.38 254.47 587.93 258.51 598.85 262.73 608.79 266.82 617.29 271.13 623.91 275.67 629.75 282.52 626.43 297.53 618.36 305.75 611.91 311.31 605.14 317.17 598.85 323.33 594.32 329.48 591.73 335.93 591.64 342.66 594.66 349.38 600.42 356.39 608.63 363.67 618.87 370.94 630.04 378.49 641.03 386.3 651.01 394.11 658.47 402 662.72 409.97 663.81 417.95 661.21 426.02 655.24 434.15 646.69 442.31 636.02 450.56 624.11 458.89 611.99 467.25 600.31 475.71 589.79 484.23 581.08 492.81 574.35 501.45 569.7 510.14 567.33 518.86 566.71 527.6 567.45 536.31 569.56 545 572.11 553.62 574.6 562.07 577.17 570.42 578.89 578.53 579.48 586.3 579.27 593.83 577.62 600.91 574.53 607.44 570.43 613.57 565 619.03 558.44 623.71 551.09 627.87 542.91 631.17 534.14 633.54 524.93 635.33 515.41 636.18 505.76 636.08 495.97 635.47 486.22 633.99 476.63 631.69 467.04 629.12 457.66 625.93 448.56 622.24 439.49 618.63 430.7 614.78 422.2 610.84 413.72 607.38 405.51 604.1 397.59 601.13 389.66 598.97 382.17 597.32 375.11 596.19 368.03 595.94 361.34 596.15 355.05 596.76 348.69 598.09 342.69 599.64 337.01 601.3 328.44 604.35 312.05 609.51 303.91 610.99 298.16 611.61 292.31 611.55 286.32 610.78 279.89 609.65 273.23 607.75 266.32 605.09 258.98 602.03 251.44 598.22 243.73 593.72 235.83 588.85 227.95 583.36 220.28 577.31 212.79 570.97 205.79 564.17 199.48 556.97 193.78 549.59 189.01 541.89 185.29 533.96 182.37 525.93 180.49 517.72 179.63 509.4 179.28 501.03 179.63 492.6 180.46 484.15 181.14 475.69 181.83 467.24 182.31 458.83 182 450.42 181.16 442.06 179.77 433.79 177.48 425.52 174.78 417.33 171.9 409.25 168.72 401.17 166.01 393.37 164.02 385.86 162.61 378.33 162.36 371.09 163.35 364.12 165.27 357.12 168.42 350.37 172.64 343.88 177.47 337.34 182.99 331.03 188.94 324.94 194.84 318.77 200.73 312.79 206.43 306.98 211.53 301.06 216.23 295.29 220.49 289.63 224 283.83 227.15 278.11 230.04 272.46 232.41 266.63 234.75 260.84 237.22 255.08 239.54 249.12 242.22 243.18 245.36 237.27 248.67 231.16 252.57 225.09 257.06 219.1 261.89 212.96 267.32 206.93 273.3 201.07 279.62 195.17 286.41 189.51 293.59 184.16 301.02 178.9 308.74 174.04 316.65 169.68 324.73 165.55 332.91 162.01 341.1 159.12 349.38 156.6 357.62 154.81 365.74 153.81 373.89 153.23 381.88 153.45 389.66 154.5" stroke-dasharray="3 10" transform="rotate(20.200000000000003, 400, 400)" opacity="0.15"></path><path d="M382.14 165.13C389.41 166.53 396.38 168.63 403.04 171.33 409.7 174.28 416.08 177.74 422.21 181.64 428.39 185.61 434.38 189.91 440.26 194.47 446.31 198.96 452.37 203.62 458.54 208.39 465.05 212.97 471.85 217.62 479.03 222.3 486.72 226.73 494.95 231.18 503.76 235.63 513.12 239.82 523.06 244.03 533.51 248.26 544.27 252.26 555.25 256.33 566.21 260.47 576.84 264.42 586.89 268.5 595.97 272.72 607.04 278.93 617.52 292.21 616.14 299.37 613.03 304.17 608.32 309.23 602.44 314.57 596.51 319.87 590.62 325.46 585.48 331.32 582.15 337.17 580.71 343.3 581.58 349.71 585.21 356.11 591.22 362.79 599.28 369.74 609.07 376.69 619.58 383.91 629.86 391.41 639.25 398.9 646.39 406.5 650.69 414.19 652.21 421.88 650.42 429.67 645.53 437.54 638.21 445.43 628.76 453.41 617.91 461.46 606.53 469.54 595.18 477.7 584.53 485.9 575.19 494.13 567.42 502.41 561.38 510.69 557.35 518.97 555 527.23 554.07 535.41 554.63 543.54 555.96 551.54 557.63 559.33 559.77 566.99 561.54 574.36 562.63 581.37 563.16 591.26 557.43 607.81 551.09 614.1 545.78 617.58 539.54 620.26 532.56 622.09 525.09 623.42 517.11 623.9 508.78 623.52 500.22 622.74 491.49 621.19 482.73 618.92 473.9 616.45 465.13 613.45 456.51 610 447.89 606.66 439.45 603.12 431.24 599.49 423.05 596.31 415.07 593.28 407.34 590.49 399.62 588.44 392.3 586.82 385.36 585.65 378.4 585.27 371.79 585.29 365.5 585.66 359.14 586.68 353.06 587.91 347.21 589.25 341.22 591 335.38 592.66 329.65 594.13 323.69 595.74 317.73 596.98 311.73 597.77 305.41 598.45 298.95 598.55 292.32 598.04 285.34 597.25 278.15 595.79 270.79 593.64 263.15 591.16 255.42 588 247.67 584.19 239.9 580.07 232.33 575.34 225.1 570.07 218.21 564.54 211.93 558.54 206.42 552.13 201.57 545.54 197.65 538.6 194.75 531.4 192.56 524.08 191.32 516.55 190.96 508.88 190.98 501.14 191.54 493.29 192.47 485.38 193.14 477.45 193.74 469.49 194.07 461.54 193.6 453.58 192.62 445.64 191.1 437.76 188.73 429.87 185.99 422.04 183.07 414.28 179.87 406.53 177.1 399.02 175 391.77 173.41 384.51 172.92 377.49 173.59 370.72 175.15 363.91 177.89 357.33 181.71 350.97 186.19 344.56 191.43 338.34 197.18 332.31 203.03 326.21 208.99 320.26 214.89 314.45 220.33 308.54 225.46 302.74 230.21 297.05 234.28 291.21 237.96 285.44 241.31 279.73 244.09 273.86 246.72 268.02 249.31 262.23 251.6 256.26 254.08 250.31 256.85 244.42 259.61 238.36 262.81 232.37 266.48 226.47 270.35 220.47 274.74 214.61 279.64 208.93 284.79 203.24 290.42 197.82 296.47 192.71 302.73 187.72 309.34 183.13 316.21 179.03 323.23 175.16 330.44 171.86 337.76 169.19 345.16 166.87 352.6 165.23 360.02 164.34 367.47 163.84 374.86 164.1 382.13 165.13" stroke-dasharray="6 5" transform="rotate(24.24, 400, 400)" opacity="0.27"></path><path d="M378.01 175.77C384.84 177.12 391.53 179.13 398.06 181.71 404.61 184.53 411.03 187.83 417.37 191.56 423.79 195.38 430.19 199.52 436.64 203.92 443.26 208.28 450.05 212.83 457.06 217.5 464.38 222.03 472.04 226.64 480.1 231.29 488.55 235.74 497.44 240.21 506.78 244.71 516.43 248.96 526.41 253.25 536.6 257.56 546.78 261.65 556.84 265.79 566.53 270 575.62 274.02 583.86 278.14 590.92 282.38 598.86 288.61 603.85 301.74 600.73 308.73 597.06 313.4 592.24 318.31 586.71 323.45 581.48 328.55 576.59 333.91 572.62 339.53 570.45 345.12 570.07 350.98 571.77 357.1 575.9 363.21 582.06 369.59 589.94 376.23 599.25 382.87 609.1 389.78 618.69 396.96 627.49 404.15 634.3 411.44 638.6 418.81 640.49 426.2 639.42 433.68 635.53 441.24 629.4 448.81 621.16 456.47 611.42 464.18 600.94 471.9 590.15 479.68 579.65 487.49 570.02 495.3 561.53 503.13 554.42 510.92 548.98 518.69 545.05 526.39 542.5 533.98 541.44 541.48 541.33 548.82 541.82 555.91 543.07 562.85 544.35 569.47 545.35 575.71 546.49 584.43 544.08 598.72 540.1 603.98 534.33 607.91 517.96 611.34 507.95 610.85 500.83 609.94 493.37 608.36 485.71 606.16 477.92 603.81 470.04 601 462.15 597.81 454.22 594.74 446.35 591.49 438.59 588.16 430.82 585.25 423.19 582.45 415.7 579.86 408.22 577.92 401.05 576.34 394.18 575.14 387.28 574.64 380.65 574.48 374.25 574.63 367.77 575.37 361.48 576.3 355.32 577.33 349.03 578.76 342.8 580.13 336.59 581.36 330.17 582.76 323.7 583.85 317.14 584.58 310.31 585.26 303.35 585.45 296.25 585.11 288.9 584.58 281.42 583.46 273.86 581.73 266.19 579.74 258.55 577.13 251.05 573.94 243.68 570.48 236.65 566.45 230.09 561.9 223.98 557.12 218.55 551.88 213.93 546.23 209.96 540.39 206.89 534.21 204.78 527.73 203.26 521.13 202.58 514.3 202.64 507.28 202.93 500.19 203.63 492.95 204.58 485.62 205.18 478.26 205.64 470.82 205.8 463.36 205.17 455.88 204.03 448.39 202.4 440.92 199.96 433.44 197.17 425.99 194.24 418.57 191.03 411.16 188.22 403.95 186.03 396.97 184.3 389.97 183.57 383.18 183.93 376.59 185.11 369.98 187.45 363.56 190.83 357.32 194.9 351.03 199.77 344.91 205.25 338.93 210.93 332.89 216.85 326.98 222.83 321.18 228.51 315.28 233.98 309.48 239.16 303.76 243.75 297.91 247.98 292.12 251.88 286.39 255.18 280.51 258.25 274.67 261.18 268.88 263.7 262.94 266.27 257.04 268.95 251.21 271.49 245.26 274.31 239.38 277.47 233.63 280.67 227.8 284.3 222.14 288.36 216.68 292.56 211.24 297.21 206.07 302.26 201.24 307.47 196.53 313.04 192.22 318.93 188.39 324.93 184.79 331.2 181.73 337.65 179.28 344.17 177.14 350.83 175.67 357.58 174.88 364.34 174.46 371.16 174.75 378 175.77" stroke-dasharray="8 10" transform="rotate(28.28, 400, 400)" opacity="0.37"></path><path d="M378.07 186.4C384.54 187.71 391.02 189.62 397.49 192.08 403.98 194.76 410.5 197.9 417.07 201.46 423.73 205.1 430.5 209.07 437.43 213.31 444.52 217.52 451.85 221.93 459.44 226.48 467.27 230.92 475.42 235.46 483.91 240.06 492.62 244.49 501.65 248.96 510.91 253.47 520.25 257.77 529.68 262.1 539.03 266.46 548.11 270.62 556.79 274.83 564.85 279.09 572.15 283.18 578.44 287.36 583.48 291.63 588.52 297.89 589.02 310.95 584.78 317.83 580.9 322.41 576.28 327.19 571.34 332.18 565.05 339.71 559.51 355.89 562.21 364.56 566.72 370.41 572.95 376.51 580.59 382.87 589.39 389.21 598.6 395.82 607.52 402.68 615.74 409.54 622.21 416.51 626.48 423.55 628.67 430.6 628.23 437.74 625.26 444.94 620.23 452.15 613.18 459.43 604.6 466.74 595.11 474.06 585.06 481.4 574.97 488.74 565.36 496.07 556.49 503.38 548.65 510.62 542.12 517.82 536.87 524.92 532.86 531.86 530.23 538.71 528.6 545.35 527.74 551.72 527.96 560.86 529.44 576.88 529.45 583.49 525.52 592.78 510.59 598.86 502.78 598.09 497.11 597.1 491 595.53 484.54 593.42 477.93 591.22 471.07 588.61 464.07 585.67 457 582.87 449.84 579.91 442.65 576.87 435.45 574.21 428.25 571.64 421.07 569.22 413.89 567.39 406.9 565.86 400.09 564.64 393.27 564.04 386.59 563.73 380.05 563.68 373.44 564.16 366.92 564.81 360.45 565.55 353.86 566.68 347.27 567.76 340.64 568.74 333.85 569.91 326.98 570.84 320.02 571.46 312.88 572.09 305.64 572.31 298.31 572.08 290.86 571.72 283.38 570.85 275.93 569.46 268.52 567.87 261.27 565.73 254.28 563.06 247.55 560.17 241.27 556.75 235.56 552.86 230.33 548.76 225.83 544.21 222.13 539.27 219.04 534.15 216.79 528.69 215.39 522.91 214.47 517.02 214.25 510.87 214.62 504.5 215.09 498.07 215.86 491.46 216.75 484.71 217.24 477.93 217.53 471.04 217.49 464.09 216.68 457.12 215.4 450.1 213.64 443.05 211.15 436.01 208.35 428.94 205.41 421.89 202.22 414.83 199.39 407.94 197.12 401.22 195.26 394.5 194.31 387.94 194.37 381.55 195.19 375.13 197.1 368.87 200.03 362.76 203.64 356.6 208.09 350.58 213.19 344.67 218.6 338.71 224.36 332.84 230.29 327.07 236.07 321.22 241.77 315.43 247.28 309.72 252.32 303.9 257.06 298.13 261.48 292.41 265.37 286.57 268.98 280.78 272.38 275.04 275.33 269.19 278.21 263.39 281.08 257.67 283.69 251.86 286.45 246.16 289.41 240.59 292.29 234.98 295.48 229.55 299 224.35 302.55 219.18 306.48 214.3 310.78 209.75 315.15 205.34 319.89 201.32 324.96 197.76 330.09 194.43 335.53 191.62 341.23 189.38 346.97 187.44 352.93 186.11 359.09 185.43 365.25 185.09 371.58 185.41 378.06 186.4" stroke-dasharray="10 5" transform="rotate(32.32, 400, 400)" opacity="0.47"></path><path d="M382.3 197.03C388.48 198.29 394.78 200.11 401.19 202.44 407.62 204.98 414.19 207.96 420.91 211.32 427.7 214.79 434.68 218.58 441.87 222.62 449.18 226.67 456.74 230.92 464.54 235.33 472.48 239.65 480.67 244.09 489.07 248.61 497.53 252.99 506.14 257.43 514.78 261.91 523.3 266.22 531.67 270.57 539.73 274.95 547.36 279.16 554.39 283.41 560.63 287.72 568.28 293.97 576.18 306.68 576.05 313.2 573.34 319.7 562.72 333.35 556.47 340.56 551.66 347.88 549.17 363.51 552.87 371.84 557.66 377.45 563.87 383.29 571.22 389.36 579.52 395.42 588.08 401.72 596.35 408.26 604 414.79 610.12 421.41 614.32 428.1 616.74 434.79 616.85 441.55 614.7 448.36 610.7 455.16 604.8 462.01 597.38 468.87 588.97 475.73 579.81 482.59 570.34 489.41 561.03 496.21 552.1 502.96 543.86 509.6 536.59 516.19 530.32 522.65 525.09 528.92 521.07 535.09 518 541.02 515.74 546.67 514.03 554.73 513.02 568.6 512.65 574.19 504.73 584.02 486.65 583.47 478.89 580.71 473.43 578.66 467.63 576.27 461.54 573.58 455.38 571.04 449.01 568.36 442.47 565.6 435.91 563.18 429.22 560.83 422.42 558.59 415.62 556.87 408.87 555.38 402.19 554.16 395.5 553.48 388.84 553.03 382.22 552.8 375.56 553.06 368.9 553.45 362.22 553.92 355.46 554.76 348.65 555.57 341.78 556.29 334.81 557.22 327.77 557.95 320.65 558.44 313.46 558.98 306.23 559.17 298.98 558.99 291.74 558.74 284.57 558.05 277.54 556.91 270.67 555.63 264.06 553.87 257.82 551.63 249.24 547.78 235.74 537.55 231.17 531.29 228.14 524.44 226.23 508.97 226.87 500.5 227.44 494.7 228.18 488.71 228.95 482.55 229.28 476.36 229.37 470.02 229.12 463.59 228.13 457.14 226.7 450.6 224.85 444 222.31 437.4 219.5 430.74 216.58 424.06 213.42 417.37 210.59 410.8 208.27 404.37 206.29 397.94 205.15 391.63 204.93 385.44 205.4 379.24 206.88 373.16 209.34 367.19 212.46 361.18 216.43 355.27 221.09 349.46 226.13 343.6 231.6 337.81 237.36 332.1 243.1 326.32 248.87 320.6 254.57 314.93 259.94 309.18 265.09 303.48 269.99 297.82 274.43 292.08 278.6 286.38 282.54 280.75 286.03 275.03 289.38 269.38 292.63 263.83 295.57 258.22 298.53 252.73 301.58 247.38 304.46 242.04 307.52 236.88 310.82 231.95 315.81 224.8 327.32 212.3 333.88 207.16 340.78 202.82 356.13 197.16 364.51 196 370.18 195.72 376.11 196.07 382.29 197.03" stroke-dasharray="8 4" transform="rotate(36.36, 400, 400)" opacity="0.19"></path><path d="M389.91 207.67C395.84 208.87 401.95 210.59 408.24 212.79 414.55 215.18 421.05 217.99 427.74 221.17 441.26 227.8 455.67 235.55 470.81 244.05 486.07 252.33 501.74 261.06 517.08 270.03 531.42 278.44 544.02 287.06 553.62 295.82 560.28 304.03 562.69 312.55 560.56 321.39 556.19 329.85 549.39 338.84 542.22 348.4 538.38 357.76 538.44 367.85 543.73 378.67 548.7 384.05 554.82 389.64 561.84 395.43 569.61 401.21 577.55 407.2 585.18 413.4 592.28 419.6 598.03 425.86 602.13 432.17 604.72 438.47 605.3 444.83 603.88 451.2 596.22 463.94 582.54 476.72 565.57 489.29 548.21 501.73 532.22 513.76 519.08 525.06 509.79 535.92 503.63 545.71 499.68 554.04 497.32 564.4 489.56 573.75 480.95 572.4 473.96 570.25 465.08 566.51 454.67 561.56 449.38 559.27 443.77 556.85 437.89 554.35 432 552.17 425.86 550.02 419.5 547.96 413.14 546.34 406.72 544.91 400.26 543.69 393.8 542.95 387.29 542.39 380.73 542.01 367.56 542.51 354.11 543.3 340.43 544.03 326.65 545.57 312.71 546.31 298.96 545.94 285.62 545.47 273.11 543.43 262.13 539.76 252.63 535.59 245.47 529.74 241.08 522.39 238.37 514.57 237.98 505.44 239.33 495.26 240.22 484.84 240.95 473.6 240.67 461.78 239.52 455.85 237.95 449.8 236 443.66 233.44 437.51 230.64 431.27 227.75 424.97 224.63 418.67 221.82 412.44 219.47 406.32 217.41 400.18 216.1 394.14 215.62 388.18 216.56 376.24 221.21 364.58 229.02 353.26 238.51 341.77 249.55 330.47 261.11 319.41 271.91 308.09 282.06 296.93 291.35 286.04 299.05 274.95 306.2 264.21 313.16 254.05 319.2 243.99 325.76 234.79 333.14 226.79 340.27 219.38 348.54 213.56 358 209.66 365.22 207.57 381.16 206.55 389.9 207.67" stroke-dasharray="8 0" transform="rotate(40.400000000000006, 400, 400)" opacity="0.15"></path><path d="M399.44 218.3C410.81 220.81 423.01 225.15 435.89 230.99 448.86 237.23 462.51 244.57 476.52 252.67 490.34 260.63 504.01 269.09 516.74 277.84 528.21 286.15 537.55 294.69 543.82 303.39 547.6 311.62 547.75 320.12 544.39 328.9 539.9 337.33 534.08 346.2 528.7 355.53 526.79 364.69 528.54 374.44 534.77 384.82 545.94 395.13 559.87 406.15 574.01 417.84 586.31 429.54 592.93 441.39 592.79 453.22 586.99 465.04 575.53 476.78 560.53 488.2 544.39 499.47 528.57 510.24 514.58 520.2 503.45 529.75 495 538.21 488.76 545.25 483.4 553.93 474.02 561.13 466.55 559.52 460.81 557.46 453.37 554.05 444.35 549.58 435.15 545.68 424.6 541.48 412.86 537.32 401.12 534.72 388.84 532.7 376.21 531.29 363.6 531.38 350.62 531.69 337.48 531.97 324.48 533.04 311.52 533.45 299.05 532.96 287.26 532.52 276.57 530.75 267.58 527.58 260.05 524.06 254.74 519.05 251.89 512.67 250.27 505.91 250.48 497.91 251.93 488.85 252.6 479.59 252.89 469.45 252.14 458.66 248.87 447.8 244.26 436.39 238.92 424.58 232.77 412.76 228.32 401.12 226.45 389.74 226.69 378.31 230.36 367.07 237.06 356.08 245.55 344.95 255.84 333.97 267.02 323.2 277.93 312.25 288.59 301.46 298.63 290.98 307.4 280.4 315.58 270.2 323.39 260.63 330.23 251.23 337.26 242.7 344.79 235.35 351.92 228.58 359.94 223.31 368.99 219.84 377.93 217.29 388.05 216.73 399.43 218.3" stroke-dasharray="4 7" transform="rotate(44.44, 400, 400)" opacity="0.60"></path><path d="M409.07 228.94C419.93 231.3 431.46 235.35 443.46 240.8 455.46 246.63 467.8 253.52 480.07 261.18 491.96 268.77 503.19 276.9 513.08 285.35 521.67 293.47 528.01 301.85 531.49 310.41 533.1 318.59 531.81 327.01 528.01 335.65 523.99 344.01 519.49 352.73 515.98 361.82 515.87 370.75 519.05 380.17 525.97 390.08 536.89 399.94 549.89 410.38 562.84 421.35 574.22 432.32 580.73 443.33 581.45 454.22 577.32 465.08 567.98 475.75 555.05 486.01 540.49 496.12 525.41 505.64 511.25 514.32 499 522.63 488.81 529.86 480.59 535.75 472.12 542.93 459.38 548.38 451.96 546.64 446.72 544.74 440.11 541.66 432.09 537.67 423.97 534.23 414.5 530.47 403.78 526.69 393.05 524.24 381.66 522.21 369.87 520.64 358.15 520.37 346.12 520.26 334.07 520.12 322.31 520.73 310.83 520.81 300.08 520.14 290.12 519.63 281.43 518.01 274.49 515.19 268.81 512.17 265.13 507.85 263.54 502.28 262.71 496.43 263.25 489.42 264.59 481.38 264.92 473.18 264.73 464.08 263.5 454.26 260 444.39 255.34 433.89 250.09 422.9 244.11 411.9 239.63 400.94 237.42 390.12 237.02 379.28 239.74 368.54 245.3 357.96 252.66 347.29 261.98 336.73 272.46 326.37 283.12 315.89 293.9 305.6 304.36 295.63 313.93 285.65 323.01 276.08 331.66 267.17 339.43 258.48 347.18 250.65 355.14 243.96 362.64 237.84 370.76 233.11 379.67 230.05 388.44 227.82 398.21 227.41 409.07 228.94" stroke-dasharray="5 4" transform="rotate(48.48, 400, 400)" opacity="0.21"></path><path d="M416.98 239.57C427.25 241.79 437.88 245.55 448.67 250.59 459.39 256 470.05 262.43 480.25 269.6 489.97 276.77 498.68 284.5 505.83 292.58 511.85 300.43 515.72 308.57 517.14 316.89 517.34 324.92 515.4 333.18 511.84 341.64 508.73 349.85 505.78 358.36 504.11 367.16 505.61 375.82 509.94 384.88 517.31 394.3 527.85 403.69 539.88 413.52 551.67 423.74 562.13 433.96 568.46 444.11 569.88 454.03 567.21 463.93 559.86 473.53 549.03 482.64 536.29 491.61 522.43 499.95 508.72 507.43 496.06 514.58 484.8 520.69 475.12 525.57 467.24 529.96 460.53 533 454.53 534.56 449.55 535.68 444.45 535.41 438.83 533.79 433.47 532.07 427.14 529.35 419.73 525.82 412.29 522.81 403.7 519.48 393.97 516.05 384.24 513.76 373.92 511.75 363.26 510.06 352.72 509.49 342.01 509.01 331.46 508.48 321.27 508.66 311.57 508.4 302.78 507.53 291.41 506.09 277.77 498.17 275.91 491.37 275.58 486.28 276.18 480.12 277.23 473 277.13 465.74 276.42 457.6 274.75 448.72 271.05 439.79 266.39 430.19 261.26 420.02 255.47 409.85 251.02 399.62 248.55 389.43 247.58 379.24 249.39 369.06 253.82 359 259.97 348.9 268.13 338.86 277.65 329.02 287.68 319.12 298.18 309.42 308.67 300.07 318.65 290.77 328.32 281.91 337.63 273.71 346.23 265.76 354.69 258.65 363.15 252.64 371.19 247.15 379.58 242.96 388.47 240.3 397.22 238.37 406.7 238.09 416.98 239.57" stroke-dasharray="3 1" transform="rotate(52.52, 400, 400)" opacity="0.62"></path><path d="M421.65 250.2C431.23 252.27 440.81 255.73 450.19 260.36 459.46 265.35 468.32 271.28 476.39 277.94 484.01 284.65 490.42 291.91 495.24 299.55 499.22 307.05 501.32 314.85 501.47 322.85 501.01 330.63 499.11 338.64 496.31 346.82 494.42 354.81 493.08 363.04 493.12 371.49 495.97 379.83 501.18 388.47 508.76 397.37 518.79 406.24 529.84 415.44 540.5 424.89 550.05 434.34 556.12 443.61 558.09 452.57 556.67 461.5 551.14 470.06 542.34 478.08 531.57 485.96 519.28 493.18 506.55 499.56 494.19 505.67 482.57 510.8 472.06 514.8 462.85 518.43 454.69 520.86 447.35 522.01 440.97 522.84 434.82 522.49 428.57 521 422.68 519.48 416.25 517.11 409.13 514.04 402.04 511.43 394.1 508.5 385.31 505.42 376.52 503.29 367.34 501.32 358.01 499.55 348.8 498.73 339.62 497.94 330.79 497.08 322.33 496.86 314.51 496.27 307.67 495.18 299.04 493.55 289.67 486.19 288.84 480.13 288.7 475.66 289.14 470.23 289.76 463.9 289.17 457.47 287.95 450.21 285.87 442.21 282.03 434.16 277.4 425.43 272.43 416.1 266.88 406.76 262.5 397.29 259.83 387.8 258.38 378.31 259.36 368.79 262.7 359.34 267.61 349.88 274.49 340.48 282.84 331.26 291.92 322.05 301.73 313.04 311.82 304.39 321.76 295.83 331.61 287.73 341.21 280.29 350.35 273.11 359.31 266.74 368.16 261.4 376.67 256.53 385.31 252.87 394.16 250.58 402.91 248.94 412.06 248.78 421.65 250.2" stroke-dasharray="9 2" transform="rotate(56.56, 400, 400)" opacity="0.32"></path><path d="M422.19 260.84C430.99 262.75 439.43 265.91 447.37 270.13 455.2 274.67 462.33 280.1 468.5 286.21 474.3 292.41 478.86 299.16 481.96 306.3 484.54 313.35 485.61 320.73 485.25 328.32 484.78 335.76 483.45 343.42 481.78 351.23 481.24 358.9 481.45 366.77 483 374.8 486.91 382.75 492.72 390.91 500.3 399.24 509.71 407.55 519.76 416.07 529.33 424.74 537.98 433.4 543.74 441.79 546.09 449.81 545.71 457.79 541.79 465.34 534.92 472.32 526.16 479.19 515.66 485.4 504.32 490.8 492.84 495.98 481.54 500.26 470.87 503.53 461.01 506.52 451.95 508.47 443.64 509.32 436.11 509.96 429 509.6 422.08 508.27 415.53 506.99 408.82 504.96 401.79 502.31 394.83 500.09 387.39 497.54 379.45 494.79 371.5 492.82 363.46 490.91 355.5 489.1 347.65 488.08 340.04 487.04 332.94 485.9 323.12 484.89 308.69 481.27 304.73 478.09 302.45 474.24 301.95 462.35 302.08 454.3 300.98 448.6 299.28 442.12 296.84 434.93 292.91 427.72 288.37 419.83 283.6 411.33 278.32 402.84 274.07 394.16 271.27 385.42 269.43 376.69 269.68 367.89 272 359.15 275.69 350.42 281.25 341.74 288.28 333.24 296.15 324.78 304.94 316.54 314.23 308.67 323.66 300.92 333.21 293.62 342.68 286.96 351.93 280.57 361.04 274.93 369.97 270.25 378.7 266 387.4 262.83 396.07 260.91 404.67 259.53 413.39 259.48 422.19 260.84" stroke-dasharray="6 5" transform="rotate(60.599999999999994, 400, 400)" opacity="0.88"></path><path d="M418.51 271.47C426.44 273.22 433.76 276.08 440.38 279.89 446.9 283.98 452.57 288.89 457.23 294.44 461.66 300.09 464.94 306.28 467 312.85 468.83 319.4 469.55 326.27 469.33 333.35 469.33 340.35 468.93 347.57 468.55 354.91 469.35 362.16 470.95 369.58 473.72 377.11 478.4 384.58 484.53 392.21 491.91 399.92 500.61 407.62 509.66 415.44 518.18 423.3 525.94 431.16 531.31 438.68 533.91 445.78 534.35 452.85 531.82 459.46 526.71 465.48 519.88 471.42 511.29 476.71 501.61 481.25 491.46 485.63 481.07 489.2 470.87 491.86 461.06 494.35 451.73 495.93 443 496.57 434.8 497.1 427.05 496.78 419.65 495.64 412.57 494.59 405.59 492.9 398.61 490.66 391.73 488.79 384.69 486.59 377.5 484.15 370.31 482.36 363.32 480.53 356.64 478.72 346.95 476.94 330.68 473.52 324.73 471.45 317.97 465.9 314.79 451.65 314.11 444.45 312.51 439.37 310.39 433.6 307.67 427.17 303.71 420.72 299.3 413.64 294.77 405.97 289.8 398.31 285.72 390.45 282.87 382.51 280.74 374.57 280.38 366.57 281.78 358.61 284.33 350.67 288.58 342.8 294.23 335.1 300.73 327.47 308.24 320.06 316.41 313.01 324.9 306.1 333.71 299.64 342.58 293.78 351.45 288.16 360.27 283.26 368.92 279.22 377.49 275.56 385.94 272.86 394.21 271.27 402.45 270.15 410.58 270.19 418.51 271.47" stroke-dasharray="9 8" transform="rotate(64.64, 400, 400)" opacity="0.43"></path><path d="M411.3 282.11C418.32 283.69 424.61 286.25 430.11 289.64 435.55 293.29 440.13 297.66 443.77 302.63 447.31 307.71 449.89 313.3 451.54 319.25 453.19 325.22 454.1 331.51 454.45 338.02 455.23 344.48 455.92 351.15 456.82 357.94 458.81 364.68 461.54 371.56 465.21 378.5 470.36 385.42 476.54 392.43 483.55 399.47 491.47 406.5 499.51 413.59 507 420.63 513.9 427.68 518.85 434.35 521.56 440.57 522.62 446.77 521.25 452.5 517.68 457.66 512.65 462.76 505.94 467.25 498.06 471.05 489.54 474.74 480.48 477.71 471.3 479.91 462.15 481.98 453.2 483.29 444.63 483.82 436.35 484.29 428.43 484.05 420.91 483.12 413.62 482.3 406.56 480.93 399.74 479.07 392.99 477.52 386.34 475.66 379.84 473.52 370.29 471.04 353.63 466.46 346.81 464.27 336.89 460.15 329.35 451.02 328.64 446.32 327.29 441.06 322.49 427.48 318.33 419.18 314.42 413.45 310.2 407.14 305.94 400.3 301.32 393.47 297.46 386.44 294.63 379.33 292.32 372.23 291.46 365.06 292.08 357.94 293.61 350.86 296.62 343.84 300.92 337 305.99 330.23 312.08 323.69 318.9 317.51 326.14 311.46 333.83 305.84 341.73 300.77 349.76 295.93 357.84 291.73 365.82 288.31 373.82 285.21 381.67 282.97 389.28 281.69 396.9 280.79 404.28 280.9 411.3 282.11" stroke-dasharray="4 3" transform="rotate(68.68, 400, 400)" opacity="0.80"></path><path d="M401.94 292.74C414.14 295.86 423.43 302.2 429.65 310.81 435.81 319.87 439.37 330.68 441.28 342.38 445.15 354.05 450.08 366.49 457.41 379.09 468.98 391.62 482.74 404.43 495.83 416.89 507.11 429.34 511.17 440.21 507.83 449.04 499.83 457.68 486.68 464.05 471.34 467.78 455.33 471.26 439.45 472.23 424.91 470.73 410.85 469.67 397.76 466.95 386.01 462.88 374.27 460.42 364.78 457.33 357.81 453.81 350.91 451.57 346.55 448.21 344.52 443.51 341.57 439.26 339.38 433.08 336.98 424.97 331.39 416.86 324.47 406.67 317.11 394.62 308.57 382.56 303.52 369.88 302.92 357.36 305.03 344.99 311.96 332.99 322.25 322.25 334.25 312.01 347.98 303.47 361.83 297.55 376.01 292.67 389.73 290.85 401.94 292.74" stroke-dasharray="10 10" transform="rotate(72.72, 400, 400)" opacity="0.69"></path><path d="M392.2 303.37C402.64 306.09 410.7 311.56 416.44 318.99 422.38 326.83 426.71 336.26 430.27 346.53 435.62 356.85 442.07 367.89 450.22 379.02 461.24 390.16 473.46 401.43 484.66 412.26 494.5 423.08 498.74 432.38 497.17 439.82 492.07 447.14 482.4 452.48 470.26 455.6 457.07 458.62 443.28 459.57 430.24 458.49 417.36 457.81 405.36 455.68 394.86 452.25 384.35 450.03 376.16 447.06 370.26 443.57 364.21 441.08 360.15 437.58 357.73 432.99 354.2 428.82 351.06 423.09 347.67 415.82 341.8 408.6 335.06 399.67 328.28 389.21 320.56 378.75 315.67 367.82 314.33 357.1 314.86 346.51 319.39 336.34 326.94 327.34 335.98 318.77 346.89 311.72 358.3 306.94 370.13 302.98 381.77 301.61 392.2 303.37" stroke-dasharray="2 2" transform="rotate(76.76, 400, 400)" opacity="0.14"></path><path d="M383.95 314.01C392.72 316.33 399.9 320.93 405.58 327.18 411.55 333.8 416.73 341.8 421.66 350.56 428 359.42 435.25 368.91 443.51 378.5 453.57 388.1 464.11 397.78 473.49 406.99 481.89 416.2 486.04 424.02 485.77 430.22 483 436.36 476.44 440.83 467.47 443.48 457.41 446.13 446.3 447.1 435.36 446.4 424.35 446.06 413.89 444.45 404.68 441.62 395.46 439.66 388.22 436.9 382.85 433.57 377.23 430.97 373.05 427.47 369.96 423.1 365.84 419.06 361.89 413.81 357.81 407.37 351.91 400.99 345.56 393.27 339.45 384.37 332.62 375.47 328.08 366.27 326.27 357.34 325.67 348.53 328.22 340.15 333.33 332.84 339.58 325.87 347.65 320.23 356.52 316.5 365.77 313.38 375.19 312.41 383.95 314.01" stroke-dasharray="2 6" transform="rotate(80.80000000000001, 400, 400)" opacity="0.61"></path><path d="M378.76 324.64C385.97 326.56 392.4 330.32 398.07 335.42 404.01 340.8 409.73 347.36 415.44 354.57 422.12 361.89 429.43 369.76 437.18 377.72 445.93 385.71 454.7 393.74 462.32 401.35 471.19 412.18 470.64 427.41 462.54 431.54 455.53 433.86 447.28 434.84 438.73 434.49 430.03 434.41 421.44 433.25 413.6 430.98 405.76 429.32 399.33 426.84 394.23 423.79 388.88 421.24 384.46 417.9 380.74 413.86 376.21 410.08 371.77 405.35 367.35 399.77 361.72 394.24 355.96 387.71 350.62 380.34 344.77 372.97 340.71 365.48 338.74 358.3 337.43 351.2 338.51 344.56 341.65 338.84 345.52 333.37 351.04 329.02 357.52 326.23 364.28 323.87 371.55 323.23 378.76 324.64" stroke-dasharray="5 9" transform="rotate(84.84, 400, 400)" opacity="0.65"></path><path d="M377.61 335.28C389.11 338.63 400.46 347.45 411.41 358.66 424.49 370.23 439.2 383.57 451.15 395.65 461.45 407.72 462.16 416.06 455.27 419.88 445.94 423.93 432.67 424.18 419.94 420.35 407.21 418.02 397.24 412.6 389.69 405.31 380.06 398.71 370.13 389.08 361.79 377.35 352.11 365.61 348.83 354.05 351.91 345.38 356.53 337.38 366.11 333.24 377.61 335.28" stroke-dasharray="10 3" transform="rotate(88.88, 400, 400)" opacity="0.89"></path><path d="M380.73 345.91C389.42 348.36 399.29 354.75 409.11 362.93 419.87 371.37 431.24 381.19 439.98 390.17 448.59 402.32 436.37 412.16 422.48 409.71 412.87 407.85 404.07 403.38 396.65 397.45 388.14 391.92 379.64 384.31 372.96 375.53 363.99 362.62 369.02 345.59 380.73 345.91" stroke-dasharray="5 0" transform="rotate(92.92, 400, 400)" opacity="0.15"></path><path d="M387.51 356.54C399.3 360.02 417.42 373.31 428.81 385.2 438.62 397.08 433.48 402.79 420.73 399.08 407.97 396.83 392.96 386.69 384.13 375 373.88 363.3 375.72 354.43 387.51 356.54" stroke-dasharray="5 3" transform="rotate(96.96, 400, 400)" opacity="0.99"></path></g></svg>